<svg xmlns="http://www.w3.org/2000/svg" width="13.965" height="15.517" viewBox="0 0 13.965 15.517">
  <path id="Icon_material-date-range" data-name="Icon material-date-range" d="M9.155,9.983H7.6v1.552H9.155Zm3.1,0H10.707v1.552h1.552Zm3.1,0H13.81v1.552h1.552Zm1.552-5.431h-.776V3H14.586V4.552H8.379V3H6.828V4.552H6.052A1.545,1.545,0,0,0,4.508,6.1L4.5,16.965a1.551,1.551,0,0,0,1.552,1.552H16.913a1.556,1.556,0,0,0,1.552-1.552V6.1A1.556,1.556,0,0,0,16.913,4.552Zm0,12.413H6.052V8.431H16.913Z" transform="translate(-4.5 -3)" fill="#00346a"/>
</svg>
